<?xml version="1.0" encoding="UTF-8"?>
<svg id="Capa_2" data-name="Capa 2" xmlns="http://www.w3.org/2000/svg" viewBox="0 0 1200 1080">
  <defs>
    <style>
      .cls-1 {
        fill: #fff;
      }
    </style>
  </defs>
  <path class="cls-1" d="M714.95,386.58c16.35,7.34,32.71,14.69,49.06,22.03,5.07,75.01,2.57,110.69,0,201.2-1.63,83.03,1.01,100.6-14.72,125.11-13.81,21.53-32.71,34.29-46.61,41.7-40.67,22.59-78.6,43.54-115.3,63.78-63.25,35.98-92.61,46.42-157,80.95-131.05,83.88-274.21,92.33-387.59,29.44,222.75,206.27,675.53,99.08,856.13-88.3,110.19-112.85,109.7-215.23,103.02-424.39,5.37-50.18-8.27-165.56,26.99-240.4-20.52,36.51-275.61,165.74-314,188.89Z"/>
  <path class="cls-1" d="M236.59,703.03c14.11,48.16,75.13,135.79,117.75,166.81-11.45-17.99-22.9-35.98-34.34-53.97v-411.62C581.98,250.33,830.26,91.05,1156.51,45.6c-204.7-30.73-432.07-52.67-632.9,29.43C249.32,214.41,138.31,443.01,236.59,703.03Z"/>
</svg>