<?xml version="1.0" encoding="UTF-8"?>
<svg id="Capa_1" data-name="Capa 1" xmlns="http://www.w3.org/2000/svg" viewBox="0 0 75.61 70.94">
  <defs>
    <style>
      .cls-1 {
        stroke-width: 0px;
      }
    </style>
  </defs>
  <path class="cls-1" d="m45.63,25.03c1.11.5,2.22,1,3.33,1.5.34,5.09.17,7.51,0,13.66-.11,5.64.07,6.83-1,8.49-.94,1.46-2.22,2.33-3.16,2.83-2.76,1.53-5.34,2.96-7.83,4.33-4.29,2.44-6.29,3.15-10.66,5.5-8.9,5.69-18.62,6.27-26.31,2,15.12,14,45.86,6.73,58.12-5.99,7.48-7.66,7.45-14.61,6.99-28.81.36-3.41-.56-11.24,1.83-16.32-1.39,2.48-18.71,11.25-21.32,12.82Z"/>
  <path class="cls-1" d="m13.16,46.51c.96,3.27,5.1,9.22,7.99,11.32-.78-1.22-1.55-2.44-2.33-3.66v-27.94C36.6,15.78,53.46,4.96,75.61,1.88,61.71-.21,46.28-1.7,32.64,3.87,14.02,13.34,6.48,28.86,13.16,46.51Z"/>
</svg>